<svg width="14" height="14" viewBox="0 0 14 14" fill="none" xmlns="http://www.w3.org/2000/svg">
<path fill-rule="evenodd" clip-rule="evenodd" d="M10.4992 7.5201e-08C10.8776 -0.000119684 11.2421 0.142805 11.5196 0.400123C11.7971 0.657441 11.967 1.01013 11.9954 1.3875L11.9992 1.5V12H12.7492C12.9403 12.0002 13.1242 12.0734 13.2632 12.2046C13.4022 12.3359 13.4858 12.5152 13.497 12.706C13.5083 12.8969 13.4462 13.0848 13.3235 13.2314C13.2008 13.378 13.0267 13.4722 12.8369 13.4948L12.7492 13.5H0.749169C0.558009 13.4998 0.374145 13.4266 0.235143 13.2954C0.0961408 13.1641 0.0124929 12.9848 0.00129003 12.794C-0.00991281 12.6031 0.0521751 12.4152 0.174868 12.2686C0.29756 12.122 0.471597 12.0278 0.661419 12.0052L0.749169 12H1.49917V1.5C1.49905 1.12157 1.64197 0.757075 1.89929 0.479589C2.15661 0.202103 2.5093 0.0321326 2.88667 0.00375016L2.99917 7.5201e-08H10.4992ZM8.62417 6C8.47643 6 8.33014 6.0291 8.19365 6.08564C8.05716 6.14217 7.93314 6.22504 7.82867 6.3295C7.72421 6.43397 7.64134 6.55799 7.5848 6.69448C7.52827 6.83097 7.49917 6.97726 7.49917 7.125C7.49917 7.27274 7.52827 7.41903 7.5848 7.55552C7.64134 7.69201 7.72421 7.81603 7.82867 7.9205C7.93314 8.02496 8.05716 8.10783 8.19365 8.16436C8.33014 8.2209 8.47643 8.25 8.62417 8.25C8.92254 8.25 9.20869 8.13147 9.41966 7.9205C9.63064 7.70952 9.74917 7.42337 9.74917 7.125C9.74917 6.82663 9.63064 6.54048 9.41966 6.3295C9.20869 6.11853 8.92254 6 8.62417 6Z" fill="#0077FF"/>
</svg>
