<svg width="17" height="17" viewBox="0 0 17 17" fill="none" xmlns="http://www.w3.org/2000/svg">
<path fill-rule="evenodd" clip-rule="evenodd" d="M7.2639 0.982422L8.1564 1.51792C9.2884 2.18707 10.158 3.22262 10.6214 4.45326C10.7787 4.09909 10.9657 3.75555 11.1392 3.40846L11.8341 4.10334C13.3938 5.66309 14.8749 8.00059 14.8749 10.2708C14.8749 13.3152 12.9979 15.2454 9.99453 15.579L9.00994 15.6881L9.22528 14.7213C9.39315 13.9648 9.42361 13.4703 9.38819 13.124C9.34569 12.6883 9.13886 12.3462 8.88103 12.0062C8.63453 11.6804 8.39015 11.3538 8.19465 10.9933C7.3907 11.6287 7.07903 12.2024 6.97915 12.6749C6.85165 13.2798 7.03228 13.8982 7.36236 14.5583L7.94461 15.7228L6.6512 15.579C4.82653 15.3765 3.02878 14.1574 2.32045 12.3788C1.58024 10.518 2.1037 8.26621 4.49503 6.19363C6.0817 4.81876 6.92178 3.03588 7.2639 0.982422ZM8.2074 3.31992C7.66765 4.83575 6.63136 6.217 5.42224 7.26463C3.36028 9.05175 3.1754 10.6958 3.63724 11.8546C3.98078 12.7188 4.7224 13.4293 5.60145 13.8323C5.49874 13.355 5.49585 12.8616 5.59295 12.383C5.82386 11.288 6.61153 10.2616 8.12453 9.31596L8.8874 8.83925L9.17215 9.6928C9.42149 10.4408 9.93857 10.9699 10.343 11.6265C10.7879 12.349 10.8729 13.1778 10.7822 14.0051C12.638 13.5412 13.4583 12.1337 13.4583 10.2708C13.4583 8.69688 12.5091 7.15271 11.567 5.94571C11.1789 6.81555 10.3607 7.12155 9.56244 7.52105V6.37496C9.56244 5.40525 9.1679 4.22305 8.2074 3.32063V3.31992Z" fill="#CC5F00"/>
</svg>
